<svg xmlns="http://www.w3.org/2000/svg" width="11.2" height="11.2"><path data-name="Union 4" d="M7.9 11.1a5.6 5.6 0 01-2-.6 11 11 0 01-3.7-2.8 10 10 0 01-1.8-3A4 4 0 01.1 3a1.7 1.7 0 01.5-1.1l.8-.8h0a1.1 1.1 0 01.8-.3A1.1 1.1 0 013 1l.4.4.2.2.6.7a1 1 0 010 1.6l-.2.2-.5.5a4.7 4.7 0 00.6 1 8 8 0 002 1.7l.2.2h.2l.7-.7a1.1 1.1 0 01.8-.3 1 1 0 01.8.3L10 8.2a1.1 1.1 0 01.4.8 1.2 1.2 0 01-.3.8l-.3.3a5.6 5.6 0 00-.5.4h0a1.7 1.7 0 01-1.3.6h-.1zm-6-9.6l-.8.8a1 1 0 00-.4.7A3.4 3.4 0 001 4.5a9.5 9.5 0 001.7 2.8A10.3 10.3 0 006 9.9a5 5 0 001.8.6H8A1.1 1.1 0 009 10a6.2 6.2 0 01.4-.5l.3-.2h0a.5.5 0 000-.8L8.3 7.4h0a.5.5 0 00-.3-.2.5.5 0 00-.4.2l-.7.8a.5.5 0 01-.4.1.5.5 0 01-.2 0h0L6 8 5.7 8a8.5 8.5 0 01-2-2h0A5 5 0 012.9 5h0a.5.5 0 01.1-.6h0a12.4 12.4 0 00.8-.8.4.4 0 000-.7l-.6-.6L3 2l-.4-.5h0a.5.5 0 00-.4-.1.5.5 0 00-.3.1zm6.6 3.7a3 3 0 00-.9-1.6A3 3 0 006 2.7a.3.3 0 01-.2-.3A.3.3 0 016 2a3.6 3.6 0 012 1 3.6 3.6 0 011 2 .3.3 0 01-.3.3.4.4 0 010 0 .3.3 0 01-.3-.2zm2-.1A5.3 5.3 0 009 2.2 5.3 5.3 0 006 .7.3.3 0 016 .4a.3.3 0 01.3-.3 5.9 5.9 0 013.2 1.7A5.9 5.9 0 0111.1 5a.3.3 0 01-.3.3.4.4 0 010 0 .3.3 0 01-.3-.2z" fill="#d0d2d5" stroke="#d0d2d5" stroke-width=".2"/></svg>